<svg width="198" height="41" viewBox="0 0 198 41" fill="none" xmlns="http://www.w3.org/2000/svg">
<path d="M14.64 0.799991C16.9173 0.799991 19.008 1.09866 20.912 1.69599C22.816 2.29333 24.4587 3.17066 25.84 4.32799C27.2213 5.48533 28.2853 6.90399 29.032 8.58399C29.7787 10.264 30.152 12.168 30.152 14.296C30.152 16.424 29.7787 18.328 29.032 20.008C28.2853 21.688 27.2213 23.1067 25.84 24.264C24.4587 25.384 22.816 26.2613 20.912 26.896C19.008 27.4933 16.9173 27.792 14.64 27.792H11.112V40H0.584V0.799991H14.64ZM11.112 18.552H14.864C16.2453 18.552 17.3653 18.1787 18.224 17.432C19.12 16.6853 19.568 15.6587 19.568 14.352C19.568 13.0453 19.12 12.0187 18.224 11.272C17.3653 10.5253 16.2453 10.152 14.864 10.152H11.112V18.552Z" fill="white"/>
<path d="M32.5237 0.799991H56.3797V10.32H43.0517V15.696H55.0357V24.88H43.0517V30.48H56.4917V40H32.5237V0.799991Z" fill="white"/>
<path d="M58.2767 0.799991H88.1807V10.656H78.4927V40H67.9647V10.656H58.2767V0.799991Z" fill="white"/>
<path d="M100.969 40H90.4968V0.799991H104.497C106.774 0.799991 108.846 1.09866 110.713 1.69599C112.617 2.25599 114.241 3.11466 115.585 4.27199C116.966 5.39199 118.03 6.77332 118.777 8.41599C119.523 10.0587 119.897 11.944 119.897 14.072C119.897 16.7973 119.225 19.112 117.881 21.016C116.574 22.8827 114.857 24.3573 112.729 25.44L122.753 40H110.433L102.201 27.064H100.969V40ZM100.969 18.552H104.665C106.009 18.552 107.11 18.1787 107.969 17.432C108.865 16.6853 109.313 15.6587 109.313 14.352C109.313 13.0453 108.865 12.0187 107.969 11.272C107.11 10.5253 106.009 10.152 104.665 10.152H100.969V18.552Z" fill="white"/>
<path d="M162.118 20.4C162.118 23.2373 161.577 25.9067 160.494 28.408C159.412 30.872 157.918 33.0187 156.014 34.848C154.148 36.6773 151.945 38.1333 149.406 39.216C146.905 40.2613 144.217 40.784 141.342 40.784C138.468 40.784 135.761 40.2613 133.222 39.216C130.721 38.1333 128.518 36.6773 126.614 34.848C124.748 33.0187 123.273 30.872 122.19 28.408C121.108 25.9067 120.566 23.2373 120.566 20.4C120.566 17.5627 121.108 14.912 122.19 12.448C123.273 9.94666 124.748 7.78133 126.614 5.95199C128.518 4.12266 130.721 2.68533 133.222 1.63999C135.761 0.557324 138.468 0.0159912 141.342 0.0159912C144.217 0.0159912 146.905 0.557324 149.406 1.63999C151.945 2.68533 154.148 4.12266 156.014 5.95199C157.918 7.78133 159.412 9.94666 160.494 12.448C161.577 14.912 162.118 17.5627 162.118 20.4ZM151.31 20.4C151.31 18.9813 151.049 17.656 150.526 16.424C150.004 15.192 149.294 14.128 148.398 13.232C147.502 12.2987 146.438 11.5707 145.206 11.048C144.012 10.5253 142.724 10.264 141.342 10.264C139.924 10.264 138.598 10.5253 137.366 11.048C136.172 11.5707 135.126 12.2987 134.23 13.232C133.334 14.128 132.625 15.192 132.102 16.424C131.617 17.656 131.374 18.9813 131.374 20.4C131.374 21.8187 131.617 23.144 132.102 24.376C132.625 25.608 133.334 26.6907 134.23 27.624C135.126 28.52 136.172 29.2293 137.366 29.752C138.598 30.2747 139.924 30.536 141.342 30.536C142.724 30.536 144.012 30.2747 145.206 29.752C146.438 29.2293 147.502 28.52 148.398 27.624C149.294 26.6907 150.004 25.608 150.526 24.376C151.049 23.144 151.31 21.8187 151.31 20.4Z" fill="white"/>
<path d="M173.733 40L158.837 0.799991H170.093L178.549 24.376L186.949 0.799991H197.869L182.917 40H173.733Z" fill="white"/>
</svg>
